<svg xmlns="http://www.w3.org/2000/svg" width="90.51" height="90.51" viewBox="0 0 90.51 90.51"><g transform="translate(-824 -398)"><rect width="64" height="64" rx="15" transform="translate(869.255 398) rotate(45)" fill="#fff" opacity="0.8"/><g transform="translate(841.667 415.551)"><path d="M21.273,4.207a24.022,24.022,0,0,1,30.1,22.7,24.011,24.011,0,1,1-30.1-22.7Z" transform="translate(0 0)" fill="#010101"/><path d="M35,22.372c11.746-4.7,26.153,3.98,27.369,16.575,1.893,11.333-7.513,22.849-19,23.182C32.455,63.218,21.9,53.962,21.592,43A20.487,20.487,0,0,1,35,22.372Z" transform="translate(-14.68 -14.23)" fill="#fff"/><path d="M80.478,67.52c5.265-4.3,10.415-8.752,15.795-12.927-2.822,4.336-5.724,8.614-8.546,12.95-2.42.012-4.84.012-7.249-.023Zm4.451,2.4c2.432,0,4.852,0,7.272.034-5.3,4.278-10.427,8.763-15.818,12.927C79.2,78.543,82.107,74.254,84.929,69.918Z" transform="translate(-58.976 -41.29)" fill="#010101"/></g></g></svg>