<svg xmlns="http://www.w3.org/2000/svg" width="90.51" height="90.51" viewBox="0 0 90.51 90.51"><g transform="translate(-824 -398)"><rect width="64" height="64" rx="15" transform="translate(869.255 398) rotate(45)" fill="#fff" opacity="0.8"/><g transform="translate(849 423)"><path d="M0,20V0H40V40H0" fill="#007acc"/><path d="M87.7,183.894v1.63h5.2v14.8h3.69v-14.8h5.2v-1.6a12.466,12.466,0,0,0-.04-1.65c0-.03-3.17-.04-7.02-.04l-7,.03v1.64Zm23.37-1.67a4.842,4.842,0,0,1,2.5,1.43,6.292,6.292,0,0,1,.96,1.28c0,.06-1.73,1.23-2.78,1.88-.04.03-.2-.14-.36-.4a2.287,2.287,0,0,0-1.88-1.12c-1.2-.08-2,.55-2,1.6a1.58,1.58,0,0,0,.18.76c.27.55.77.88,2.32,1.56,2.86,1.23,4.1,2.04,4.85,3.2a5.827,5.827,0,0,1,.47,4.87,5.338,5.338,0,0,1-4.43,3.17,12.476,12.476,0,0,1-3.05-.03,7.55,7.55,0,0,1-4.07-2.13,7.149,7.149,0,0,1-1.04-1.54l.38-.24,1.5-.87,1.13-.66.26.35a5.442,5.442,0,0,0,1.5,1.46,3.718,3.718,0,0,0,3.9-.2,1.5,1.5,0,0,0,.53-1.2,1.543,1.543,0,0,0-.3-1.02c-.32-.44-.96-.8-2.76-1.6a10.039,10.039,0,0,1-3.77-2.3,5.681,5.681,0,0,1-1.1-2,7.658,7.658,0,0,1-.06-2.57,4.872,4.872,0,0,1,4.1-3.8,9.692,9.692,0,0,1,3.04.1l-.02.02Z" transform="translate(-78.93 -163.824)" fill="#fff"/></g></g></svg>