<svg xmlns="http://www.w3.org/2000/svg" width="90.51" height="90.51" viewBox="0 0 90.51 90.51"><g transform="translate(-824 -398)"><rect width="64" height="64" rx="15" transform="translate(869.255 398) rotate(45)" fill="#fff" opacity="0.8"/><g transform="translate(846.901 419)"><path d="M54.244,30h0L31.9,37.968l3.408,29.544L54.244,78h0L73.18,67.512l3.408-29.544Z" transform="translate(-31.9 -30)" fill="#dd0031"/><path d="M125,30V59.616h0V78h0l18.936-10.488,3.408-29.544Z" transform="translate(-102.656 -30)" fill="#c3002f"/><path d="M80.768,52.1,66.8,83.42h5.208l2.808-7.008H86.672L89.48,83.42h5.208L80.768,52.1Zm4.08,19.992h-8.16l4.08-9.816Z" transform="translate(-58.424 -46.796)" fill="#fff"/></g></g></svg>