<svg xmlns="http://www.w3.org/2000/svg" width="48" height="48" viewBox="0 0 48 48"><g transform="translate(-530 -1234)"><g transform="translate(530 1234)" fill="none" stroke="#303952" stroke-width="1"><rect width="48" height="48" rx="8" stroke="none"/><rect x="0.5" y="0.5" width="47" height="47" rx="7.5" fill="none"/></g><path d="M0,2.25,2.454,30.08,13.5,33.75l11.046-3.67L27,2.25ZM22.015,7.875,21.677,11.2,13.57,14.667l-.021.007h7.84l-.9,10.308L13.584,27,6.638,24.947l-.45-5.2H9.626l.225,2.693,3.7.935L17.4,22.3l.26-4.331L5.963,17.93v-.007l-.014.007L5.7,14.674l7.882-3.284.457-.19H5.393L4.985,7.875Z" transform="translate(541 1239.75)" fill="#303952"/></g></svg>