<svg xmlns="http://www.w3.org/2000/svg" width="48" height="48" viewBox="0 0 48 48"><g transform="translate(-530 -1234)"><g transform="translate(530 1234)" fill="none" stroke="#303952" stroke-width="1"><rect width="48" height="48" rx="8" stroke="none"/><rect x="0.5" y="0.5" width="47" height="47" rx="7.5" fill="none"/></g><path d="M10.369,24.837c0,.125-.144.225-.325.225-.206.019-.35-.081-.35-.225,0-.125.144-.225.325-.225C10.206,24.594,10.369,24.694,10.369,24.837Zm-1.944-.281c-.044.125.081.269.269.306a.293.293,0,0,0,.387-.125c.037-.125-.081-.269-.269-.325a.321.321,0,0,0-.387.144Zm2.762-.106c-.181.044-.306.163-.288.306.019.125.181.206.369.163s.306-.163.288-.288S11.369,24.431,11.187,24.45ZM15.3.5A14.987,14.987,0,0,0,0,15.75,15.669,15.669,0,0,0,10.594,30.7c.8.144,1.081-.35,1.081-.756,0-.388-.019-2.525-.019-3.837,0,0-4.375.938-5.294-1.862,0,0-.713-1.819-1.738-2.288,0,0-1.431-.981.1-.962a3.3,3.3,0,0,1,2.412,1.612,3.3,3.3,0,0,0,4.556,1.306,3.474,3.474,0,0,1,1-2.106C9.2,21.419,5.675,20.913,5.675,14.9A4.737,4.737,0,0,1,7.15,11.219a5.905,5.905,0,0,1,.162-4.244c1.306-.406,4.313,1.688,4.313,1.688a14.765,14.765,0,0,1,7.85,0s3.006-2.1,4.313-1.687a5.9,5.9,0,0,1,.163,4.244A4.858,4.858,0,0,1,25.563,14.9c0,6.031-3.681,6.512-7.175,6.906a3.7,3.7,0,0,1,1.063,2.9c0,2.106-.019,4.712-.019,5.225,0,.406.288.9,1.081.756A15.525,15.525,0,0,0,31,15.75C31,7.081,23.969.5,15.3.5ZM6.075,22.056c-.081.063-.062.206.044.325.1.1.244.144.325.063.081-.062.063-.206-.044-.325C6.3,22.019,6.156,21.975,6.075,22.056ZM5.4,21.55c-.044.081.019.181.144.244a.186.186,0,0,0,.269-.044c.044-.081-.019-.181-.144-.244C5.544,21.469,5.444,21.487,5.4,21.55Zm2.025,2.225c-.1.081-.062.269.081.388.144.144.325.163.406.063.081-.081.044-.269-.081-.388C7.694,23.694,7.506,23.675,7.425,23.775Zm-.713-.919c-.1.063-.1.225,0,.369s.269.206.35.144a.285.285,0,0,0,0-.388c-.088-.144-.25-.206-.35-.125Z" transform="translate(539 1242.5)" fill="#303952"/></g></svg>