<svg xmlns="http://www.w3.org/2000/svg" width="48" height="48" viewBox="0 0 48 48"><g transform="translate(-530 -1234)"><g transform="translate(530 1234)" fill="none" stroke="#303952" stroke-width="1"><rect width="48" height="48" rx="8" stroke="none"/><rect x="0.5" y="0.5" width="47" height="47" rx="7.5" fill="none"/></g><path d="M6.575,1.556a.627.627,0,0,0-1.181,0L1.862,12.481h8.25c-.006,0-3.537-10.925-3.537-10.925ZM.056,17.981A1.247,1.247,0,0,0,.5,19.356l15.494,11.5L1.856,12.481Zm10.05-5.5L16,30.856l5.894-18.375Zm21.837,5.5-1.8-5.5L16,30.856l15.494-11.5A1.25,1.25,0,0,0,31.944,17.981ZM26.606,1.556a.627.627,0,0,0-1.181,0L21.888,12.481h8.25Z" transform="translate(538.003 1241.861)" fill="#303952"/></g></svg>