<svg xmlns="http://www.w3.org/2000/svg" width="48" height="48" viewBox="0 0 48 48"><g transform="translate(-530 -1234)"><g transform="translate(530 1234)" fill="none" stroke="#303952" stroke-width="1"><rect width="48" height="48" rx="8" stroke="none"/><rect x="0.5" y="0.5" width="47" height="47" rx="7.5" fill="none"/></g><path d="M0,0H32V32H0ZM29.379,24.368c-.233-1.46-1.184-2.687-4-3.831-.981-.46-2.072-.78-2.4-1.52a1.574,1.574,0,0,1-.061-.94,1.528,1.528,0,0,1,2.02-.88,2.169,2.169,0,0,1,1.3,1.2c1.379-.9,1.379-.9,2.34-1.5a5.5,5.5,0,0,0-.781-1.04,4.478,4.478,0,0,0-3.779-1.379l-.94.119a4.3,4.3,0,0,0-2.28,1.34,4.183,4.183,0,0,0,.759,5.961c1.82,1.36,4.481,1.659,4.821,2.94.32,1.56-1.16,2.06-2.621,1.88a3.511,3.511,0,0,1-2.34-1.781l-2.44,1.4a5.392,5.392,0,0,0,1.08,1.479c2.32,2.341,8.12,2.221,9.161-1.339a4.513,4.513,0,0,0,.1-2.2l.061.089ZM17.4,14.708h-3c0,2.584-.012,5.152-.012,7.74a12.624,12.624,0,0,1-.184,3.615c-.44.919-1.573.8-2.088.64a2.573,2.573,0,0,1-1.107-1.14,1.144,1.144,0,0,0-.169-.261L8.411,26.8a4.716,4.716,0,0,0,1.765,2.023,5.868,5.868,0,0,0,4.276.54,3.745,3.745,0,0,0,2.415-1.881c.68-1.24.536-2.76.529-4.461.016-2.739,0-5.479,0-8.239l.005-.075Z" transform="translate(538 1242)" fill="#303952"/></g></svg>