<svg xmlns="http://www.w3.org/2000/svg" width="48" height="48" viewBox="0 0 48 48"><g transform="translate(-530 -1234)"><g transform="translate(530 1234)" fill="none" stroke="#303952" stroke-width="1"><rect width="48" height="48" rx="8" stroke="none"/><rect x="0.5" y="0.5" width="47" height="47" rx="7.5" fill="none"/></g><path d="M31.87,12.541c-.21-.24-3.14-3.9-3.655-4.524s-.77-.51-1.085-.465-4.025.67-4.454.74-.7.245-.435.615c.235.33,2.67,3.785,3.21,4.544l-9.684,2.32L8.058,2.9c-.3-.455-.37-.615-1.07-.58s-6.044.475-6.424.51-.8.2-.42,1.1S6.593,17.906,6.763,18.286a1.3,1.3,0,0,0,1.64.75c1.055-.255,4.714-1.21,6.714-1.735,1.055,1.915,3.21,5.794,3.61,6.349.53.745.9.62,1.715.37.64-.195,9.979-3.555,10.4-3.725s.68-.295.395-.72c-.21-.31-2.675-3.61-3.965-5.339.885-.235,4.03-1.07,4.364-1.165.395-.1.45-.29.235-.53Zm-17.608,3.6c-.115.025-5.539,1.325-5.829,1.39s-.29.035-.325-.065S1.659,4.132,1.569,3.967s-.085-.295,0-.295,5.124-.45,5.3-.46.16.03.225.14c0,0,7.109,12.269,7.229,12.484S14.377,16.116,14.262,16.141Zm15.3,2.87c.085.135.175.225-.1.32s-9.184,3.1-9.354,3.18-.31.1-.53-.225-3.12-5.339-3.12-5.339L25.9,14.491c.235-.075.31-.125.46.11S29.475,18.876,29.56,19.011Zm.6-6.7c-.21.045-3.68.9-3.68.9l-2.835-3.89c-.08-.115-.145-.225.055-.25s3.42-.61,3.565-.64.27-.075.45.17,2.63,3.35,2.725,3.47-.07.185-.28.235Z" transform="translate(538.006 1244.687)" fill="#303952"/></g></svg>