<svg xmlns="http://www.w3.org/2000/svg" width="48" height="48" viewBox="0 0 48 48"><g transform="translate(-530 -1234)"><g transform="translate(530 1234)" fill="none" stroke="#303952" stroke-width="1"><rect width="48" height="48" rx="8" stroke="none"/><rect x="0.5" y="0.5" width="47" height="47" rx="7.5" fill="none"/></g><path d="M25.77,14.277C23.875,5.937,19.407,3.2,18.927,2.148A13.478,13.478,0,0,1,17.827,0c0,.029-.006.047-.007.073v.02h0c0,.023,0,.038-.006.058V.174h0c0,.015,0,.027,0,.039V.252h0a.285.285,0,0,1,0,.037V.321h0a.107.107,0,0,1,0,.032v.03h0c0,.015,0,.033,0,.048v0l-.014.075V.521h0a.079.079,0,0,0,0,.018V.564h0V.6h-.007V.624h-.007V.656h-.006V.684h-.006V.71h-.009V.731h-.006V.758h-.006V.779H17.7V.8h0V.821h-.006a.009.009,0,0,0,0,.006V.842h0a.019.019,0,0,0,0,.009V.86h0a.066.066,0,0,0,0,.015c0,.011-.01.021-.015.031v0a.046.046,0,0,0-.007.011V.932h-.006V.944h-.007V.956h0V.971h-.009V.992h-.006V1h-.006V1.01h-.006v.016h-.006v.012H17.6v.016h-.006v.012h-.007v.012h0v.015h-.007v.012h-.006v.009H17.56v.012h-.009V1.14h-.006v.009h-.007v.012h-.006v.016h-.007v.006h0V1.2h-.009V1.2H17.5v.015H17.5v.006h-.006v.012h-.007v.009h0l0,.006v.006h0s0,0,0,.006v0h0a.024.024,0,0,1-.006.01v0h0a.282.282,0,0,0-.018.027v0a.068.068,0,0,0-.014.015v0h0s0,0,0,0v0h0l0,0v0h0s0,0,0,.006v.006h0l0,0v0h0s0,0,0,0v0h-.006s0,0,0,0V1.38h0v.006h-.006v.009h-.006v.012h-.007V1.395h-.007V1.4h-.006V1.41h-.007v.012h-.007v.006h-.006v.009h-.006v.006h-.006v.012H17.31v.006H17.3V1.47H17.3v.006H17.29v.008h-.007V1.5h0V1.5h-.009v.008h-.006v0h-.006v.006h-.007v.015h-.006v.006h-.007v.006h-.006v.009h-.007v.006h-.007v.006h-.006v.006H17.2V1.59H17.2V1.6H17.19V1.6h-.006V1.61h-.007v.009H17.17v.006h-.007v.01h-.006v.006h-.009V1.65h0v.006h-.006v.006h-.007v.006h-.006v.009h-.007v.006h0a0,0,0,0,0,0,0v0h0L17.1,1.7l-.006,0v.009h-.006v.008h-.006v.006h-.006v.006h0l0,0v0h0l0,0v0h0a.15.15,0,0,1-.021.024l-.018.015a.549.549,0,0,0-.059.048.316.316,0,0,0-.033.025v0h0l-.073.059v0l-.111.093v0h0c-.086.07-.176.15-.279.238v0h0c-.253.222-.555.507-.892.852l-.023.023-.006.006A20.653,20.653,0,0,0,9.946,16.746a15.549,15.549,0,0,0,.009,1.716v.014A16.343,16.343,0,0,0,12.1,25.61h0a18.788,18.788,0,0,0,1.389,2.108h0a19.2,19.2,0,0,0,3.771,3.789,12.534,12.534,0,0,1,.6,4.168l.966.322a17.99,17.99,0,0,1,.08-3.783,2.337,2.337,0,0,1,.524-.993,12.571,12.571,0,0,0,1.2-.968c.027-.028.042-.054.066-.081a17.135,17.135,0,0,0,5.082-15.9Z" transform="translate(536.073 1240)" fill="#303952"/></g></svg>