<svg xmlns="http://www.w3.org/2000/svg" width="48" height="48" viewBox="0 0 48 48"><g transform="translate(-530 -1234)"><g transform="translate(530 1234)" fill="none" stroke="#303952" stroke-width="1"><rect width="48" height="48" rx="8" stroke="none"/><rect x="0.5" y="0.5" width="47" height="47" rx="7.5" fill="none"/></g><path d="M24.608,8.514a1.655,1.655,0,0,0-.411.05v.019h.021a3.384,3.384,0,0,0,.321.41c.081.16.15.321.231.48l.021-.023a.558.558,0,0,0,.21-.5c-.06-.071-.069-.141-.12-.21-.06-.1-.189-.15-.27-.229ZM8.655,28.305H7.264c-.045-2.343-.185-4.545-.405-6.615H6.847L4.732,28.305H3.675l-2.1-6.615H1.56q-.232,2.977-.293,6.615H0q.124-4.423.615-8.3H2.34l2,6.1h.012l2.02-6.1H8.017q.544,4.534.642,8.3Zm6.026-6.12a18.756,18.756,0,0,1-2.238,6.69,2.981,2.981,0,0,1-2.375,1.61,2.341,2.341,0,0,1-.849-.207v-.741a3.849,3.849,0,0,0,.579.039,1.4,1.4,0,0,0,.97-.333,1.208,1.208,0,0,0,.443-.907,6.017,6.017,0,0,0-.345-1.416L9.345,22.185H10.71l1.09,3.54a4.753,4.753,0,0,1,.307,1.684,22.883,22.883,0,0,0,1.253-5.225h1.32Zm18.487,6.12H29.223v-8.3H30.55v7.275h2.618Zm-4.98.2-1.524-.75a3.222,3.222,0,0,0,.382-.375A5.081,5.081,0,0,0,28.018,24q0-4.118-3.233-4.119a3.076,3.076,0,0,0-2.475,1.045,5.092,5.092,0,0,0-.969,3.368,4.917,4.917,0,0,0,.861,3.21,2.949,2.949,0,0,0,2.375.923,3.814,3.814,0,0,0,1.087-.147l1.987,1.158.54-.933ZM23.25,26.645a5.1,5.1,0,0,1-.506-2.6q0-3.134,1.905-3.135a1.6,1.6,0,0,1,1.465.75,5.074,5.074,0,0,1,.5,2.584q0,3.159-1.905,3.162a1.6,1.6,0,0,1-1.467-.75Zm-2.487-.638a2.2,2.2,0,0,1-.774,1.734,3.041,3.041,0,0,1-2.076.675,4.16,4.16,0,0,1-2.359-.772l.356-.714a4.025,4.025,0,0,0,1.785.492,1.875,1.875,0,0,0,1.174-.33,1.13,1.13,0,0,0,.45-.923c0-.5-.345-.915-.972-1.267-.582-.319-1.744-.986-1.744-.986a1.985,1.985,0,0,1-.948-1.765,2.059,2.059,0,0,1,.7-1.628,2.657,2.657,0,0,1,1.83-.622,3.765,3.765,0,0,1,2.1.615l-.319.714a4.089,4.089,0,0,0-1.6-.345,1.412,1.412,0,0,0-.981.309,1.027,1.027,0,0,0-.372.786c0,.492.351.915,1,1.275.59.323,1.781,1,1.781,1a1.953,1.953,0,0,1,.972,1.752Zm14.073-8.778a4.6,4.6,0,0,0-1.945.282c-.15.06-.39.06-.411.25.083.08.095.21.165.321a2.3,2.3,0,0,0,.519.611c.21.165.42.324.64.465.39.24.833.382,1.215.624.217.141.439.319.66.469.11.075.18.21.321.258v-.03c-.069-.09-.09-.221-.158-.321-.1-.1-.2-.191-.3-.289A4.835,4.835,0,0,0,34.5,18.856c-.321-.219-1.023-.525-1.155-.892l-.02-.021a4.036,4.036,0,0,0,.69-.159c.34-.09.653-.07,1.005-.159.159-.041.319-.09.48-.141v-.09c-.18-.18-.315-.424-.5-.593a13.3,13.3,0,0,0-1.656-1.234c-.315-.2-.714-.33-1.046-.5-.12-.06-.321-.09-.39-.191A3.867,3.867,0,0,1,31.5,14.1c-.288-.552-.57-1.163-.82-1.745a10.387,10.387,0,0,0-.51-1.144,10.106,10.106,0,0,0-3.879-3.75A4.885,4.885,0,0,0,25,7.054c-.25-.012-.5-.03-.75-.041a3.639,3.639,0,0,1-.465-.352c-.57-.36-2.046-1.14-2.466-.108-.27.651.4,1.293.633,1.623a4.624,4.624,0,0,1,.51.75c.07.174.09.352.16.534a12,12,0,0,0,.521,1.345,4.6,4.6,0,0,0,.371.62c.081.109.219.16.25.34a2.92,2.92,0,0,0-.231.75,4.443,4.443,0,0,0,.291,3.375c.16.249.543.8,1.055.589.45-.18.351-.75.48-1.253.03-.12.01-.2.072-.281v.023c.141.282.282.55.411.832a5.644,5.644,0,0,0,1.3,1.343c.24.18.431.492.73.6v-.03h-.022a1.339,1.339,0,0,0-.231-.2,5.167,5.167,0,0,1-.525-.6,13.14,13.14,0,0,1-1.121-1.827c-.165-.315-.3-.654-.435-.965-.06-.12-.06-.3-.16-.36a3.7,3.7,0,0,0-.48.679,5.731,5.731,0,0,0-.282,1.515c-.041.01-.021,0-.041.021-.321-.078-.431-.411-.551-.69a4.354,4.354,0,0,1-.09-2.677c.07-.21.371-.873.25-1.074-.063-.191-.261-.3-.371-.455a3.717,3.717,0,0,1-.36-.641c-.24-.561-.36-1.182-.621-1.743a5.2,5.2,0,0,0-.5-.769,5.047,5.047,0,0,1-.552-.78c-.049-.109-.12-.291-.041-.411a.171.171,0,0,1,.141-.135c.132-.108.5.033.633.093a5.13,5.13,0,0,1,.993.5c.141.1.292.29.472.339h.21c.321.07.683.021.983.109a6.418,6.418,0,0,1,1.443.69,8.93,8.93,0,0,1,3.128,3.429c.12.231.173.443.282.682.21.495.469.995.683,1.473a6.531,6.531,0,0,0,.714,1.345c.15.21.753.319,1.023.429a7.288,7.288,0,0,1,.69.282c.345.21.681.45,1.005.681.165.114.665.365.694.567Z" transform="translate(536 1239.961)" fill="#303952"/></g></svg>