<svg xmlns="http://www.w3.org/2000/svg" width="48" height="48" viewBox="0 0 48 48"><g transform="translate(-530 -1234)"><g transform="translate(530 1234)" fill="none" stroke="#303952" stroke-width="1"><rect width="48" height="48" rx="8" stroke="none"/><rect x="0.5" y="0.5" width="47" height="47" rx="7.5" fill="none"/></g><path d="M14,31.75a2.448,2.448,0,0,1-1.212-.325L8.931,29.144c-.575-.325-.294-.437-.106-.5a7.6,7.6,0,0,0,1.744-.794.282.282,0,0,1,.288.025l2.962,1.756a.362.362,0,0,0,.356,0l11.544-6.663a.37.37,0,0,0,.175-.312V9.331a.372.372,0,0,0-.181-.319L14.175,2.356a.362.362,0,0,0-.356,0L2.287,9.019a.365.365,0,0,0-.181.319V22.656a.345.345,0,0,0,.181.306L5.45,24.788c1.719.856,2.769-.15,2.769-1.169V10.469a.331.331,0,0,1,.337-.331h1.462a.335.335,0,0,1,.337.331V23.625c0,2.288-1.25,3.6-3.419,3.6A4.908,4.908,0,0,1,4.281,26.5L1.256,24.756A2.43,2.43,0,0,1,.044,22.65V9.331A2.438,2.438,0,0,1,1.256,7.225L12.788.563a2.531,2.531,0,0,1,2.425,0L26.756,7.231a2.43,2.43,0,0,1,1.212,2.106V22.656a2.446,2.446,0,0,1-1.212,2.106L15.212,31.425A2.431,2.431,0,0,1,14,31.75Zm9.319-13.131c0-2.494-1.687-3.156-5.231-3.625-3.587-.475-3.95-.719-3.95-1.556,0-.694.306-1.619,2.963-1.619,2.369,0,3.244.512,3.606,2.113a.335.335,0,0,0,.325.262h1.5a.326.326,0,0,0,.244-.106.348.348,0,0,0,.087-.256C22.631,11.075,20.8,9.794,17.1,9.794c-3.294,0-5.256,1.387-5.256,3.719,0,2.525,1.956,3.225,5.113,3.538,3.781.369,4.075.925,4.075,1.669,0,1.288-1.038,1.837-3.469,1.837-3.056,0-3.725-.769-3.95-2.288a.331.331,0,0,0-.331-.281H11.788a.329.329,0,0,0-.331.331c0,1.944,1.056,4.262,6.113,4.262,3.65-.006,5.75-1.45,5.75-3.962Z" transform="translate(539.956 1241.747)" fill="#303952"/></g></svg>