<svg xmlns="http://www.w3.org/2000/svg" width="48" height="48" viewBox="0 0 48 48"><g transform="translate(-530 -1234)"><g transform="translate(530 1234)" fill="none" stroke="#303952" stroke-width="1"><rect width="48" height="48" rx="8" stroke="none"/><rect x="0.5" y="0.5" width="47" height="47" rx="7.5" fill="none"/></g><path d="M18,7.111c9.641,0,17.055,4.061,17.055,8.522S27.636,24.155,18,24.155.945,20.094.945,15.633,8.364,7.111,18,7.111m0-.945c-9.939,0-18,4.236-18,9.467S8.061,25.1,18,25.1s18-4.236,18-9.467S27.939,6.166,18,6.166Zm-5.726,8.708c-.444,2.278-2.014,2.042-3.943,2.042L9.1,12.945C11.239,12.945,12.69,12.714,12.274,14.874Zm-6.8,6.064H7.543l.489-2.52c2.312,0,3.746.169,5.074-1.074,1.468-1.35,1.851-3.752.8-4.956a3.292,3.292,0,0,0-2.616-.939H7.318ZM15.924,8.923h2.053l-.489,2.52c1.772,0,3.414-.129,4.208.6.833.765.433,1.744-.467,6.362H19.148c.866-4.466,1.029-4.837.714-5.175s-1-.259-2.666-.259l-1.058,5.434H14.085l1.839-9.484Zm12.482,5.951c-.45,2.312-2.064,2.042-3.943,2.042l.771-3.971C27.383,12.945,28.823,12.714,28.406,14.874Zm-6.8,6.064h2.07l.489-2.52c2.43,0,3.774.141,5.074-1.074,1.468-1.35,1.851-3.752.8-4.956a3.292,3.292,0,0,0-2.616-.939H23.456Z" transform="translate(536 1242.834)" fill="#303952"/></g></svg>