<svg xmlns="http://www.w3.org/2000/svg" width="48" height="48" viewBox="0 0 48 48"><g transform="translate(-530 -1234)"><g transform="translate(530 1234)" fill="none" stroke="#303952" stroke-width="1"><rect width="48" height="48" rx="8" stroke="none"/><rect x="0.5" y="0.5" width="47" height="47" rx="7.5" fill="none"/></g><path d="M30.923,14.1c-.541-2.173-1.568-3.811-3.755-3.811h-2.82V13.62a4.823,4.823,0,0,1-4.7,4.767H12.143A3.832,3.832,0,0,0,8.388,22.2v7.158c0,2.039,1.772,3.234,3.755,3.818a12.635,12.635,0,0,0,7.509,0c1.891-.548,3.755-1.652,3.755-3.818V26.5H15.9v-.956H27.169c2.187,0,3-1.526,3.755-3.811a12.86,12.86,0,0,0,0-7.636Zm-10.8,14.309a1.431,1.431,0,1,1-1.413,1.427A1.421,1.421,0,0,1,20.123,28.406ZM11.8,17.445h7.509a3.786,3.786,0,0,0,3.755-3.818V6.462a4.2,4.2,0,0,0-3.755-3.909,23.177,23.177,0,0,0-7.509.007C8.62,3.122,8.044,4.3,8.044,6.469V9.33H15.56v.956H5.224A4.694,4.694,0,0,0,.527,14.1a14.083,14.083,0,0,0,0,7.636c.534,2.222,1.807,3.811,3.994,3.811H7.1V22.113A4.774,4.774,0,0,1,11.8,17.445ZM11.327,7.418a1.431,1.431,0,1,1,1.413-1.427,1.421,1.421,0,0,1-1.413,1.427Z" transform="translate(538 1239.75)" fill="#303952"/></g></svg>