<svg xmlns="http://www.w3.org/2000/svg" width="48" height="48" viewBox="0 0 48 48"><g transform="translate(-530 -1234)"><g transform="translate(530 1234)" fill="none" stroke="#303952" stroke-width="1"><rect width="48" height="48" rx="8" stroke="none"/><rect x="0.5" y="0.5" width="47" height="47" rx="7.5" fill="none"/></g><path d="M26.138,11.075q-.506-.169-1.013-.319c.056-.231.106-.462.156-.694.769-3.725.263-6.719-1.444-7.706-1.644-.944-4.325.037-7.038,2.4-.269.231-.531.475-.781.719-.169-.162-.344-.325-.519-.481C12.656,2.469,9.806,1.406,8.1,2.4c-1.637.95-2.125,3.769-1.437,7.294.069.35.144.694.231,1.044-.4.113-.794.238-1.162.369C2.394,12.262,0,14.087,0,15.975c0,1.95,2.55,3.906,6.019,5.094.281.094.563.188.85.269-.094.375-.175.744-.25,1.125-.656,3.469-.144,6.219,1.494,7.163C9.8,30.6,12.638,29.6,15.4,27.181c.219-.194.438-.394.656-.606.275.269.563.525.85.775,2.675,2.3,5.319,3.231,6.95,2.288,1.688-.975,2.237-3.931,1.525-7.531q-.084-.412-.187-.844c.2-.056.394-.119.587-.181C29.388,19.887,32,17.956,32,15.975c0-1.894-2.462-3.731-5.862-4.9ZM17.681,5.769c2.325-2.025,4.494-2.819,5.481-2.25,1.056.606,1.462,3.056.8,6.275-.044.212-.087.419-.144.625a32,32,0,0,0-4.206-.663A31.578,31.578,0,0,0,16.95,6.438c.244-.231.481-.45.731-.669ZM10.45,19.219c.319.544.644,1.087.988,1.619a28.3,28.3,0,0,1-2.9-.469,29.2,29.2,0,0,1,1.019-2.781c.288.55.581,1.094.894,1.631ZM8.556,11.7c.9-.2,1.856-.363,2.85-.488-.331.519-.656,1.05-.962,1.587s-.606,1.075-.887,1.625c-.394-.931-.725-1.844-1-2.725Zm1.712,4.306c.413-.863.863-1.706,1.337-2.538s.988-1.637,1.525-2.431c.938-.069,1.894-.106,2.869-.106s1.938.038,2.869.106q.8,1.181,1.519,2.419t1.356,2.525q-.628,1.294-1.35,2.55c-.475.831-.981,1.638-1.513,2.438-.931.069-1.9.1-2.881.1s-1.931-.031-2.85-.087q-.816-1.191-1.538-2.437c-.481-.831-.925-1.675-1.344-2.538Zm11.288,3.2c.319-.55.619-1.106.913-1.669a29.013,29.013,0,0,1,1.056,2.769,27.452,27.452,0,0,1-2.937.5c.337-.525.656-1.062.969-1.6Zm.9-4.781c-.294-.55-.594-1.1-.906-1.637s-.625-1.056-.956-1.575a28.761,28.761,0,0,1,2.869.5A27.66,27.66,0,0,1,22.456,14.425ZM16.013,7.394a27.445,27.445,0,0,1,1.85,2.238c-1.237-.056-2.481-.056-3.719,0C14.756,8.825,15.388,8.075,16.013,7.394ZM8.762,3.563C9.813,2.95,12.144,3.825,14.6,6c.156.137.313.287.475.438a31.753,31.753,0,0,0-2.681,3.319,32.946,32.946,0,0,0-4.2.65c-.081-.319-.15-.644-.219-.969-.588-3.025-.2-5.306.788-5.875ZM7.231,20.038c-.262-.075-.519-.156-.775-.244a12.747,12.747,0,0,1-3.937-1.95,2.8,2.8,0,0,1-1.175-1.869c0-1.144,1.975-2.606,4.825-3.6.356-.125.719-.238,1.081-.344a33.234,33.234,0,0,0,1.531,3.975A34.164,34.164,0,0,0,7.231,20.038Zm7.287,6.125a11.439,11.439,0,0,1-3.525,2.206,2.766,2.766,0,0,1-2.206.081c-.994-.575-1.406-2.781-.844-5.75.069-.35.144-.7.231-1.044a31.267,31.267,0,0,0,4.244.612,32.983,32.983,0,0,0,2.7,3.337c-.2.194-.4.381-.6.556Zm1.531-1.519c-.637-.687-1.275-1.45-1.894-2.269.6.025,1.219.038,1.844.038.644,0,1.275-.013,1.9-.044A26.953,26.953,0,0,1,16.05,24.644Zm8.169,1.875a2.778,2.778,0,0,1-1.031,1.956c-.994.575-3.112-.175-5.4-2.138-.263-.225-.525-.469-.794-.719a30.918,30.918,0,0,0,2.638-3.35,30.81,30.81,0,0,0,4.262-.656c.063.256.119.513.169.763a11.393,11.393,0,0,1,.156,4.144ZM25.356,19.8c-.175.056-.35.112-.531.163a31.75,31.75,0,0,0-1.594-3.988,31.591,31.591,0,0,0,1.531-3.931c.325.094.638.194.938.294,2.913,1,4.956,2.488,4.956,3.625C30.656,17.188,28.475,18.769,25.356,19.8ZM16,18.863A2.862,2.862,0,1,0,13.137,16,2.862,2.862,0,0,0,16,18.863Z" transform="translate(538 1241.999)" fill="#303952"/></g></svg>