<svg xmlns="http://www.w3.org/2000/svg" width="48" height="48" viewBox="0 0 48 48"><g transform="translate(-530 -1234)"><g transform="translate(530 1234)" fill="none" stroke="#303952" stroke-width="1"><rect width="48" height="48" rx="8" stroke="none"/><rect x="0.5" y="0.5" width="47" height="47" rx="7.5" fill="none"/></g><path d="M16,.5A15.5,15.5,0,1,0,31.5,16,15.5,15.5,0,0,0,16,.5Zm8.359,8.971a1.091,1.091,0,0,1-1.236-1.054c-.017-.574.417-.84.408-1.178-.014-.409-.635-.426-.8-.417-2.486.081-3.037,3.562-3.681,7.116a4.162,4.162,0,0,0,2.821-.389c.75-.484-.209-.983-.089-1.535a1.014,1.014,0,0,1,2,.331c-.022,1.116-1.62,2.613-4.85,2.231-.673,3.72-1.147,7.187-3.637,10.108A6.218,6.218,0,0,1,10.817,27.2c-1.541.053-2.562-.769-2.6-1.865a1.637,1.637,0,0,1,1.519-1.662c1.368-.047,1.882,1.6.93,2.125-.756.607.007.788.128.784a2.411,2.411,0,0,0,1.386-.562c1.5-1.25,2.078-3.429,2.834-7.4A39.256,39.256,0,0,1,16.156,13.5c-1.058-.8-1.693-1.784-3.116-2.17a1.7,1.7,0,0,0-1.988.489,1.441,1.441,0,0,0,.148,1.919l.789.875c.969,1.121,1.5,1.992,1.3,3.164-.316,1.871-2.545,3.306-5.18,2.5-2.25-.694-2.669-2.285-2.4-3.164.469-1.509,2.648-.733,2.164.85a7.777,7.777,0,0,1-.392.817c-.285.923,2.616,1.775,3.188-.087.279-.907-.331-1.357-1.391-2.491a3.28,3.28,0,0,1,.184-4.979c3.3-2.459,6.283,1.1,6.911,1.613,2.323-6.812,6.283-6.591,6.4-6.6,1.573-.051,2.762.662,2.8,1.791a1.337,1.337,0,0,1-1.22,1.446Z" transform="translate(538.5 1242.5)" fill="#303952"/></g></svg>