<svg xmlns="http://www.w3.org/2000/svg" width="48" height="48" viewBox="0 0 48 48"><g transform="translate(-530 -1234)"><g transform="translate(530 1234)" fill="none" stroke="#303952" stroke-width="1"><rect width="48" height="48" rx="8" stroke="none"/><rect x="0.5" y="0.5" width="47" height="47" rx="7.5" fill="none"/></g><path d="M0,16V32H32V0H0Zm25.788-1.275a3.979,3.979,0,0,1,2,1.153,5.173,5.173,0,0,1,.767,1.027c.011.04-1.381.973-2.224,1.5-.031.02-.153-.112-.289-.315a1.815,1.815,0,0,0-1.5-.9c-.971-.067-1.595.441-1.589,1.289a1.173,1.173,0,0,0,.136.6c.213.441.611.707,1.853,1.244,2.292.987,3.272,1.636,3.881,2.56a4.645,4.645,0,0,1,.371,3.9,4.284,4.284,0,0,1-3.54,2.533,9.764,9.764,0,0,1-2.437-.024,5.884,5.884,0,0,1-3.256-1.7,5.636,5.636,0,0,1-.833-1.233,2.108,2.108,0,0,1,.293-.188c.144-.081.681-.392,1.189-.687l.92-.533.193.285A4.3,4.3,0,0,0,22.933,26.4a2.969,2.969,0,0,0,3.113-.157,1.388,1.388,0,0,0,.177-1.773c-.248-.355-.756-.653-2.2-1.28a7.915,7.915,0,0,1-3.012-1.853,4.22,4.22,0,0,1-.879-1.6,6.436,6.436,0,0,1-.056-2.041,3.9,3.9,0,0,1,3.281-3.037,8.1,8.1,0,0,1,2.428.071Zm-7.512,1.336.011,1.311H14.12V29.207H11.173V17.372H7.011V16.087a12.789,12.789,0,0,1,.035-1.32c.016-.021,2.551-.032,5.623-.027l5.593.016Z" transform="translate(538 1242)" fill="#303952"/></g></svg>