<svg xmlns="http://www.w3.org/2000/svg" width="48" height="48" viewBox="0 0 48 48"><g transform="translate(-530 -1234)"><g transform="translate(530 1234)" fill="none" stroke="#303952" stroke-width="1"><rect width="48" height="48" rx="8" stroke="none"/><rect x="0.5" y="0.5" width="47" height="47" rx="7.5" fill="none"/></g><path d="M16,.5A15.5,15.5,0,1,0,31.5,16,15.517,15.517,0,0,0,16,.5ZM2.063,16a13.84,13.84,0,0,1,1.206-5.669l6.65,18.213A13.948,13.948,0,0,1,2.063,16ZM16,29.938a13.883,13.883,0,0,1-3.937-.569l4.181-12.15,4.281,11.737a1.883,1.883,0,0,0,.1.194A13.953,13.953,0,0,1,16,29.938ZM17.919,9.469c.837-.044,1.594-.131,1.594-.131a.577.577,0,0,0-.087-1.15s-2.256.175-3.712.175c-1.369,0-3.669-.175-3.669-.175a.577.577,0,0,0-.087,1.15s.712.087,1.462.131l2.169,5.95-3.05,9.144L7.463,9.469c.837-.044,1.594-.131,1.594-.131a.577.577,0,0,0-.087-1.15s-2.256.175-3.713.175c-.262,0-.569-.006-.9-.019A13.937,13.937,0,0,1,25.413,5.719a1.766,1.766,0,0,0-.181-.012,2.412,2.412,0,0,0-2.337,2.475,6.527,6.527,0,0,0,1.369,3.269,7.314,7.314,0,0,1,1.15,3.844A16.734,16.734,0,0,1,24.35,19.8l-1.388,4.644L17.919,9.469Zm5.087,18.575,4.256-12.306a13.182,13.182,0,0,0,1.063-4.994,10.257,10.257,0,0,0-.094-1.431,13.938,13.938,0,0,1-5.225,18.731Z" transform="translate(538.5 1242.5)" fill="#303952"/></g></svg>