<svg xmlns="http://www.w3.org/2000/svg" width="123.365" height="22.135" viewBox="0 0 123.365 22.135">
  <g id="Logo" data-name="Logo" transform="translate(-987.775 -614.865)">
    <path id="Logo_a" data-name="Logo a" d="M-34.945-1.109a1.137,1.137,0,0,1,.363-.875,1.289,1.289,0,0,1,.91-.336,1.3,1.3,0,0,1,.918.336,1.137,1.137,0,0,1,.363.875,1.121,1.121,0,0,1-.359.863,1.305,1.305,0,0,1-.922.332,1.294,1.294,0,0,1-.914-.332A1.121,1.121,0,0,1-34.945-1.109Zm8.047-.555a1.481,1.481,0,0,0,1.016-.344,1.2,1.2,0,0,0,.406-.914h2.117a2.9,2.9,0,0,1-.469,1.574A3.093,3.093,0,0,1-25.09-.238a3.949,3.949,0,0,1-1.77.395A3.67,3.67,0,0,1-29.719-1,4.56,4.56,0,0,1-30.766-4.18v-.148a4.508,4.508,0,0,1,1.039-3.117,3.627,3.627,0,0,1,2.852-1.164,3.555,3.555,0,0,1,2.543.9,3.2,3.2,0,0,1,.973,2.4h-2.117a1.551,1.551,0,0,0-.406-1.072,1.354,1.354,0,0,0-1.031-.412,1.36,1.36,0,0,0-1.191.575,3.333,3.333,0,0,0-.4,1.866v.235a3.375,3.375,0,0,0,.4,1.878A1.377,1.377,0,0,0-26.9-1.664Zm7.031-5.867a2.818,2.818,0,0,1,2.258-1.078q2.75,0,2.789,3.2V0h-2.258V-5.352a1.57,1.57,0,0,0-.312-1.074,1.34,1.34,0,0,0-1.039-.348,1.537,1.537,0,0,0-1.437.766V0h-2.258V-12h2.258ZM-8.219,0a2.507,2.507,0,0,1-.227-.758,2.732,2.732,0,0,1-2.133.914,3,3,0,0,1-2.059-.719,2.312,2.312,0,0,1-.816-1.812,2.389,2.389,0,0,1,1-2.062,4.915,4.915,0,0,1,2.879-.727h1.039v-.484a1.393,1.393,0,0,0-.3-.937,1.183,1.183,0,0,0-.949-.352,1.345,1.345,0,0,0-.895.273.929.929,0,0,0-.324.75h-2.258a2.268,2.268,0,0,1,.453-1.359,3,3,0,0,1,1.281-.98,4.669,4.669,0,0,1,1.859-.355,3.689,3.689,0,0,1,2.48.785,2.747,2.747,0,0,1,.918,2.207v3.664a4.041,4.041,0,0,0,.336,1.82V0Zm-1.867-1.57a1.945,1.945,0,0,0,.922-.223,1.462,1.462,0,0,0,.625-.6V-3.844h-.844q-1.7,0-1.8,1.172l-.008.133a.9.9,0,0,0,.3.7A1.153,1.153,0,0,0-10.086-1.57Zm8.25-8.961v2.078H-.391V-6.8H-1.836v4.219a1.007,1.007,0,0,0,.18.672.9.9,0,0,0,.688.2A3.6,3.6,0,0,0-.3-1.758V-.047a4.648,4.648,0,0,1-1.367.2,2.156,2.156,0,0,1-2.422-2.4V-6.8H-5.328V-8.453h1.234v-2.078Z" transform="translate(1111.445 632.4)" fill="#8bc34a"/>
    <path id="Logo_b" data-name="Logo b" d="M-5117-2481.5l7.284-3.5v2.625H-5060v1.75h-49.717V-2478Z" transform="translate(6136 3115)" fill="#4caf50"/>
    <path id="Logo_c" data-name="Logo c" d="M-84.205-14.93-80.37-4.1l3.814-10.828h4.04V0H-75.6V-4.081l.308-7.044L-79.324,0h-2.112l-4.02-11.115.308,7.034V0h-3.076V-14.93ZM-64.969-8.2l3.107-6.727H-58.5l-4.9,9.516V0h-3.127V-5.414l-4.9-9.516h3.374ZM-44.994,0H-48.07l-5.988-9.823V0h-3.076V-14.93h3.076l6,9.844V-14.93h3.066Zm14.95-7.126a9.013,9.013,0,0,1-.779,3.866A5.869,5.869,0,0,1-33.053-.7a6.169,6.169,0,0,1-3.327.9,6.211,6.211,0,0,1-3.312-.892,5.926,5.926,0,0,1-2.256-2.548,8.755,8.755,0,0,1-.81-3.809v-.738a8.965,8.965,0,0,1,.795-3.881,5.917,5.917,0,0,1,2.246-2.574,6.177,6.177,0,0,1,3.317-.9,6.177,6.177,0,0,1,3.317.9,5.917,5.917,0,0,1,2.246,2.574,8.94,8.94,0,0,1,.795,3.871ZM-33.161-7.8A6.283,6.283,0,0,0-34-11.372a2.74,2.74,0,0,0-2.4-1.22,2.741,2.741,0,0,0-2.389,1.2,6.211,6.211,0,0,0-.851,3.532v.728A6.361,6.361,0,0,0-38.8-3.579a2.733,2.733,0,0,0,2.42,1.261A2.708,2.708,0,0,0-34-3.532a6.324,6.324,0,0,0,.841-3.543ZM-15.668,0h-3.076l-5.988-9.823V0h-3.076V-14.93h3.076l6,9.844V-14.93h3.066Zm11.3-3.076H-9.762L-10.787,0h-3.271L-8.5-14.93H-5.65L-.062,0H-3.333ZM-8.931-5.568H-5.2l-1.876-5.588Z" transform="translate(1076 630)" fill="#009688"/>
  </g>
</svg>
